<svg xmlns="http://www.w3.org/2000/svg" width="300" height="95" viewBox="-61.75 -24.158 300 95"><path fill="#D9D9D9" d="M-60.155-21.633l7.236 81.19 32.475 9.176 32.652-9.176 7.236-81.19h-79.599zM4.441-2.394L3.91 2.724 3.735 4.84h-38.123l.883 10.237H2.851l-.352 2.647L.205 44.021l-.176 1.766-20.297 5.6v.049h-.176l-20.473-5.646-1.236-15.708h9.881l.708 7.939 11.12 3.003.176-.048 10.943-2.952 1.236-12.885h-34.593l-2.472-27.531-.176-2.65H4.618l-.177 2.648z"/><path fill="#E3E3E3" d="M-8.091 25.137h-12.177v15.838l10.941-2.953z"/><path fill="#E3E3E3" d="M-20.268-15.104v10.062H4.618l-.177 2.648-.531 5.118-.175 2.118h-24.003v10.235H2.851l-.352 2.647L.205 44.022l-.176 1.766-20.297 5.6v10.286L6.03 54.435l6.176-69.539z"/><path d="M35.648 8.159v4.586h1.354v3.351h-6.514l.048-3.351h1.354V.313h-1.354v-3.399h6.466V.313h-1.354V4.64h3.4V.313h-1.403v-3.399h6.489V.313h-1.332v12.433h1.332v3.351h-6.489v-3.351h1.403V8.159h-3.4zm18.899 7.938h-6.395v-3.351h1.26V.313h-1.213v2.305h-3.091v-5.634h12.408v5.634h-3.091V.313h-1.214v12.432h1.332l.004 3.352zm16.11-19.182h6.662V.36H76.18v12.363h1.139v3.375h-6.037v-3.375h.999v-7.06l-2.973 10.436h-2.52L63.863 5.663v7.061h1.213v3.375h-6.514v-3.375h1.379V.362h-1.379v-3.447h6.996l2.655 12.954 2.444-12.954zM83.57 12.746h3.59v-2.545h3.635v5.896H78.411v-3.351h1.403V.313h-1.403v-3.399h6.49V.313h-1.332l.001 12.433zm10.054-4.35L91.7 6.024v-9.109h11.573v5.158h-3.898V.457h-3.97v4.136h5.941l1.998 1.95v7.892l-1.71 1.664h-7.94l-1.998-1.998v-3.399h3.54v1.951h4.399V8.396h-6.011zm29.453 7.701H112v-3.351h1.377l.025-12.48h-1.45V-3.18h11.125l1.928 1.708v5.913l-1.381 1.637 1.381 1.424v6.505l-1.928 2.09zM121.01.36h-3.853v4.23h3.853V.36zm0 7.678h-3.853v4.708h3.853V8.038zm10.195 4.708h3.59v-2.545h3.638v5.896h-12.385v-3.351h1.402V.313h-1.402v-3.399h6.49V.313h-1.333v12.433zm13.169 3.351h-4.992v-3.305h.69L142.947.314h-.833l-.026-3.399h5.709V.314h-.643l3.161 12.478h.692v3.305h-5.113v-3.305h.879l-.26-1.091h-2.687l-.286 1.091h.833v3.305h.001zm1.5-6.965l-.738-2.971-.762 2.971h1.5zm12.313 6.965h-6.299v-3.445h1.424V.266h-1.424v-3.351h5.531l2.765 8.2V.195h-1.356v-3.28h6.559V.266h-1.35v12.386h1.35v3.445h-5.178l-3.188-9.818v6.37h1.166v3.448zM173.353.313v-3.399h6.156V.313h-.999l-4.114 5.454 4.016 6.978h1.098v3.351h-6.156v-3.351h1.05l-2.093-4.065-.928 1.307v2.758h1.354v3.351h-6.467l-.021-3.351h1.377V.313h-1.377v-3.399h6.487V.313h-1.356v3.85l2.973-3.85h-1zM37.692 44.622h-3.4l-2.328-15.737H30.8v-3.448h5.871v3.448h-.951l.894 9.005 1.928-7.558h2.487l2.115 7.418 1.014-8.865h-1.235v-3.448h5.682v3.448h-1.117L45.229 44.62h-3.4l-2.068-8.653-2.069 8.655zm13.692 0l-1.545-1.546V27.29l1.832-1.853h7.892l1.807 1.781V42.84l-1.76 1.782h-8.226zm6.228-15.735h-4.018v12.405h4.018V28.887zm11.386 15.735h-6.489v-3.351h1.354V28.887h-1.354V25.44h10.504l1.81 2.141v7.128l-2.021 1.95h-1.188l2.591 4.612h.713v3.353h-5.372v-3.353h.784l-2.377-4.469h-.166v4.469H69l-.002 3.351zm1.856-15.735h-3.066v4.326h3.066v-4.326zm15.593 15.735H75.868l-.024-3.327h1.426V28.887h-1.426V25.44h10.65l2.115 1.851v15.412l-2.162 1.919zm-1.856-15.735h-3.566v12.405h3.566V28.887zM96.81 44.622h-6.606v-3.378h1.331V28.887h-1.331V25.44h9.872l1.846 1.871v7.21l-1.949 1.994H95.43l.027 4.731h1.379l-.026 3.376zm1.094-15.735h-2.521v4.181h2.521v-4.181zm11.409 15.735h-6.49v-3.351h1.354V28.887h-1.354V25.44h10.503l1.81 2.141v7.128l-2.018 1.95h-1.19l2.591 4.612h.715v3.353h-5.374v-3.353h.785l-2.378-4.469h-.167v4.469h1.211v3.351h.002zm1.855-15.735h-3.064v4.326h3.064v-4.326zm17.279 15.735h-12.504v-3.351h1.357V28.837h-1.449V25.44h12.596v5.49h-3.634v-2.092h-3.756v4.445h2.877v3.378h-2.877v4.612h3.756V38.73h3.634v5.892zm.906-5.658h3.757v2.331h4.326v-4.636h-6.281l-1.802-1.763v-7.765l1.761-1.691h8.175l1.976 1.957v3.7h-3.828v-2.209h-4.326v4.326h6.322l1.76 1.76v7.845l-1.832 1.807h-7.939l-2.067-2.046v-3.616h-.002zm12.716 0h3.754v2.331h4.325v-4.636h-6.282l-1.8-1.763v-7.765l1.759-1.691h8.178l1.974 1.957v3.7h-3.826v-2.209h-4.327v4.326h6.323l1.758 1.76v7.845l-1.829 1.807h-7.939l-2.067-2.046-.001-3.616zm29.644 5.658h-6.396v-3.351h1.262V28.837h-1.214v2.305h-3.089v-5.633h12.405v5.633h-3.092v-2.305h-1.214v12.435h1.333l.005 3.35zm9.34-7.939v4.589h1.354v3.351h-6.511l.044-3.351h1.354V28.837h-1.354V25.44h6.467v3.396h-1.354v4.328h3.396v-4.328h-1.401V25.44h6.487v3.396h-1.329v12.431h1.329v3.353h-6.487v-3.353h1.401v-4.585h-3.396v.001zm21.963 7.939h-12.503v-3.351h1.356V28.837h-1.452V25.44h12.599v5.49h-3.637v-2.092h-3.756v4.445h2.877v3.378h-2.877v4.612h3.756V38.73h3.637v5.892zm12.998-19.182h6.661v3.446h-1.142v12.36h1.142v3.377h-6.037v-3.377h.999v-7.06l-2.973 10.435h-2.52l-2.921-10.435v7.06h1.21v3.377h-6.511v-3.377h1.377v-12.36h-1.377V25.44h6.995l2.655 12.954 2.442-12.954zm20.184 19.182h-12.504v-3.351h1.356V28.837h-1.452V25.44h12.6v5.49h-3.638v-2.092h-3.757v4.445h2.878v3.378h-2.878v4.612h3.757V38.73h3.638v5.892z" fill="#D9D9D9"/></svg>